<svg xmlns="http://www.w3.org/2000/svg" viewBox="0 0 80 80" role="img" aria-labelledby="title"><title id="title">Fennec fox</title><circle cx="40" cy="40" r="40" fill="#716750"/><path d="M24 43Q9 24 13 5q20 6 24 28m6 0Q47 11 67 5q4 19-11 38" fill="#ebcb91"/><path d="M25 32q-7-10-7-18 11 7 13 17m18 0q2-10 13-17 0 8-7 18" fill="#c08f79"/><path d="M17 44q5-21 23-21t23 21L40 72z" fill="#e7c58b"/><path d="m19 43 21 10 21-10q-4 22-21 29-17-7-21-29" fill="#f4e6c9"/><ellipse cx="28" cy="43" rx="2.5" ry="3" fill="#514536"/><ellipse cx="52" cy="43" rx="2.5" ry="3" fill="#514536"/><path d="M35 54h10l-5 6z" fill="#514536"/></svg>
