<svg xmlns="http://www.w3.org/2000/svg" viewBox="0 0 80 80" role="img" aria-labelledby="title"><title id="title">Luna moth</title><circle cx="40" cy="40" r="40" fill="#495b5e"/><path d="M39 31Q22 13 9 16q0 21 21 28-13 7-13 18 9 1 17-12l-3 21q10-5 10-29" fill="#acc89b"/><path d="M41 31q17-18 30-15 0 21-21 28 13 7 13 18-9 1-17-12l3 21q-10-5-10-29" fill="#b9d3a7"/><path d="m11 20 24 20M69 20 45 40" fill="none" stroke="#7d9b80" stroke-width="1.5"/><ellipse cx="25" cy="31" rx="4" ry="6" transform="rotate(-40 25 31)" fill="#e7d7a3"/><ellipse cx="55" cy="31" rx="4" ry="6" transform="rotate(40 55 31)" fill="#e7d7a3"/><circle cx="25" cy="31" r="2" fill="#677b66"/><circle cx="55" cy="31" r="2" fill="#677b66"/><path d="M40 27v23" stroke="#e6d9aa" stroke-width="5" stroke-linecap="round"/><path d="m39 26-5-8m7 8 5-8" stroke="#d0c99e" stroke-width="2" stroke-linecap="round"/></svg>
